{
  "accessors": [
    {
      "bufferView": 2,
      "componentType": 5126,
      "count": 144,
      "max": [
        0.8637650012969971,
        0.8162199854850769,
        1.763659954071045
      ],
      "min": [
        -0.8637650012969971,
        -1.2404650449752808,
        1.3037689924240112
      ],
      "type": "VEC3"
    },
    {
      "bufferView": 2,
      "byteOffset": 1728,
      "componentType": 5126,
      "count": 144,
      "max": [
        0.9637150168418884,
        0.9999920129776001,
        0.9976989030838013
      ],
      "min": [
        -0.9637150168418884,
        -0.9946085214614868,
        -0.9935036897659302
      ],
      "type": "VEC3"
    },
    {
      "bufferView": 1,
      "componentType": 5126,
      "count": 144,
      "max": [
        0.5183950066566467,
        0.8531399965286255
      ],
      "min": [
        0.13317400217056274,
        0.07085800170898438
      ],
      "type": "VEC2"
    },
    {
      "bufferView": 0,
      "componentType": 5125,
      "count": 216,
      "type": "SCALAR"
    },
    {
      "bufferView": 2,
      "byteOffset": 3456,
      "componentType": 5126,
      "count": 16,
      "max": [
        0.8956850171089172,
        2.838038921356201,
        1.4226369857788086
      ],
      "min": [
        -0.8956850171089172,
        2.8331499099731445,
        1.3898119926452637
      ],
      "type": "VEC3"
    },
    {
      "bufferView": 2,
      "byteOffset": 3648,
      "componentType": 5126,
      "count": 16,
      "max": [
        0.0021999171003699303,
        0.9890920519828796,
        -0.14729882776737213
      ],
      "min": [
        0.0,
        0.9885627627372742,
        -0.15079432725906372
      ],
      "type": "VEC3"
    },
    {
      "bufferView": 1,
      "byteOffset": 1152,
      "componentType": 5126,
      "count": 16,
      "max": [
        0.9790369868278503,
        0.9565029740333557
      ],
      "min": [
        0.7436649799346924,
        0.3729749917984009
      ],
      "type": "VEC2"
    },
    {
      "bufferView": 0,
      "byteOffset": 864,
      "componentType": 5125,
      "count": 24,
      "type": "SCALAR"
    },
    {
      "bufferView": 2,
      "byteOffset": 3840,
      "componentType": 5126,
      "count": 48,
      "max": [
        0.817874014377594,
        2.7488389015197754,
        1.6669130325317383
      ],
      "min": [
        -0.817874014377594,
        0.9937499761581421,
        1.4529949426651
      ],
      "type": "VEC3"
    },
    {
      "bufferView": 2,
      "byteOffset": 4416,
      "componentType": 5126,
      "count": 48,
      "max": [
        0.0035000417847186327,
        0.12099429965019226,
        0.9943934082984924
      ],
      "min": [
        -0.010600397363305092,
        0.10549928992986679,
        0.9926532506942749
      ],
      "type": "VEC3"
    },
    {
      "bufferView": 1,
      "byteOffset": 1280,
      "componentType": 5126,
      "count": 48,
      "max": [
        0.8109400272369385,
        0.7907540202140808
      ],
      "min": [
        0.12233100086450577,
        0.4011459946632385
      ],
      "type": "VEC2"
    },
    {
      "bufferView": 0,
      "byteOffset": 960,
      "componentType": 5125,
      "count": 72,
      "type": "SCALAR"
    },
    {
      "bufferView": 2,
      "byteOffset": 4992,
      "componentType": 5126,
      "count": 48,
      "max": [
        0.8160830140113831,
        2.6725308895111084,
        1.676213026046753
      ],
      "min": [
        -0.8160830140113831,
        0.9174410104751587,
        1.4622960090637207
      ],
      "type": "VEC3"
    },
    {
      "bufferView": 2,
      "byteOffset": 5568,
      "componentType": 5126,
      "count": 48,
      "max": [
        0.0,
        0.12220066785812378,
        0.9943934082984924
      ],
      "min": [
        -0.007199951913207769,
        0.10549928992986679,
        0.9925054311752319
      ],
      "type": "VEC3"
    },
    {
      "bufferView": 1,
      "byteOffset": 1664,
      "componentType": 5126,
      "count": 48,
      "max": [
        0.8138489723205566,
        0.7805259823799133
      ],
      "min": [
        0.13043799996376038,
        0.411747008562088
      ],
      "type": "VEC2"
    },
    {
      "bufferView": 0,
      "byteOffset": 1248,
      "componentType": 5125,
      "count": 72,
      "type": "SCALAR"
    },
    {
      "bufferView": 2,
      "byteOffset": 6144,
      "componentType": 5126,
      "count": 8824,
      "max": [
        1.0562679767608643,
        2.8415210247039795,
        1.4460140466690063
      ],
      "min": [
        -1.0562679767608643,
        -2.493673086166382,
        -0.009204000234603882
      ],
      "type": "VEC3"
    },
    {
      "bufferView": 2,
      "byteOffset": 112032,
      "componentType": 5126,
      "count": 8824,
      "max": [
        1.0,
        1.0,
        1.0
      ],
      "min": [
        -1.0,
        -1.0,
        -1.0
      ],
      "type": "VEC3"
    },
    {
      "bufferView": 1,
      "byteOffset": 2048,
      "componentType": 5126,
      "count": 8824,
      "max": [
        10.162758827209473,
        1.0
      ],
      "min": [
        -10.131513595581055,
        -0.0014359999913722277
      ],
      "type": "VEC2"
    },
    {
      "bufferView": 0,
      "byteOffset": 1536,
      "componentType": 5125,
      "count": 21591,
      "type": "SCALAR"
    },
    {
      "bufferView": 2,
      "byteOffset": 217920,
      "componentType": 5126,
      "count": 78,
      "max": [
        0.9064779877662659,
        0.8438509702682495,
        1.8612200021743774
      ],
      "min": [
        -0.9064779877662659,
        -2.0988519191741943,
        1.2546230554580688
      ],
      "type": "VEC3"
    },
    {
      "bufferView": 2,
      "byteOffset": 218856,
      "componentType": 5126,
      "count": 78,
      "max": [
        0.998297393321991,
        0.9940965175628662,
        0.9921062588691711
      ],
      "min": [
        -0.998297393321991,
        -0.9940965175628662,
        -0.32810959219932556
      ],
      "type": "VEC3"
    },
    {
      "bufferView": 1,
      "byteOffset": 72640,
      "componentType": 5126,
      "count": 78,
      "max": [
        0.6375160217285156,
        0.8531399965286255
      ],
      "min": [
        0.10143300145864487,
        0.06473500281572342
      ],
      "type": "VEC2"
    },
    {
      "bufferView": 0,
      "byteOffset": 87900,
      "componentType": 5125,
      "count": 117,
      "type": "SCALAR"
    },
    {
      "bufferView": 2,
      "byteOffset": 219792,
      "componentType": 5126,
      "count": 2232,
      "max": [
        1.066735029220581,
        2.7821218967437744,
        1.1587979793548584
      ],
      "min": [
        -1.066735029220581,
        -2.826530933380127,
        0.12357699871063232
      ],
      "type": "VEC3"
    },
    {
      "bufferView": 2,
      "byteOffset": 246576,
      "componentType": 5126,
      "count": 2232,
      "max": [
        1.0,
        1.0,
        1.0
      ],
      "min": [
        -1.0,
        -1.0,
        -1.0
      ],
      "type": "VEC3"
    },
    {
      "bufferView": 1,
      "byteOffset": 73264,
      "componentType": 5126,
      "count": 2232,
      "max": [
        1.0,
        1.0
      ],
      "min": [
        0.0,
        0.02134300023317337
      ],
      "type": "VEC2"
    },
    {
      "bufferView": 0,
      "byteOffset": 88368,
      "componentType": 5125,
      "count": 3888,
      "type": "SCALAR"
    },
    {
      "bufferView": 2,
      "byteOffset": 273360,
      "componentType": 5126,
      "count": 100,
      "max": [
        0.9320899844169617,
        2.8415210247039795,
        1.446455955505371
      ],
      "min": [
        -0.9320899844169617,
        -2.735836982727051,
        0.621882975101471
      ],
      "type": "VEC3"
    },
    {
      "bufferView": 2,
      "byteOffset": 274560,
      "componentType": 5126,
      "count": 100,
      "max": [
        1.0,
        0.9999995231628418,
        0.9999887943267822
      ],
      "min": [
        -1.0,
        -1.0,
        -0.999988317489624
      ],
      "type": "VEC3"
    },
    {
      "bufferView": 1,
      "byteOffset": 91120,
      "componentType": 5126,
      "count": 100,
      "max": [
        0.9524890184402466,
        0.8835620284080505
      ],
      "min": [
        0.08374900370836258,
        0.10131700336933136
      ],
      "type": "VEC2"
    },
    {
      "bufferView": 0,
      "byteOffset": 103920,
      "componentType": 5125,
      "count": 150,
      "type": "SCALAR"
    },
    {
      "bufferView": 2,
      "byteOffset": 275760,
      "componentType": 5126,
      "count": 54,
      "max": [
        0.9645869731903076,
        2.6082398891448975,
        1.853471040725708
      ],
      "min": [
        -0.9645869731903076,
        -2.8494861125946045,
        0.4718399941921234
      ],
      "type": "VEC3"
    },
    {
      "bufferView": 2,
      "byteOffset": 276408,
      "componentType": 5126,
      "count": 54,
      "max": [
        1.0,
        0.998076319694519,
        0.945125162601471
      ],
      "min": [
        -1.0,
        -0.9849553108215332,
        -0.18220119178295135
      ],
      "type": "VEC3"
    },
    {
      "bufferView": 1,
      "byteOffset": 91920,
      "componentType": 5126,
      "count": 54,
      "max": [
        0.9839940071105957,
        0.830265998840332
      ],
      "min": [
        0.03552199900150299,
        0.08116400241851807
      ],
      "type": "VEC2"
    },
    {
      "bufferView": 0,
      "byteOffset": 104520,
      "componentType": 5125,
      "count": 90,
      "type": "SCALAR"
    },
    {
      "bufferView": 2,
      "byteOffset": 277056,
      "componentType": 5126,
      "count": 755,
      "max": [
        0.9721310138702393,
        2.8390660285949707,
        1.8591389656066895
      ],
      "min": [
        -1.0246330499649048,
        -2.884434938430786,
        0.4485740065574646
      ],
      "type": "VEC3"
    },
    {
      "bufferView": 2,
      "byteOffset": 286116,
      "componentType": 5126,
      "count": 755,
      "max": [
        0.9999605417251587,
        1.0,
        1.0
      ],
      "min": [
        -0.9999995231628418,
        -1.0,
        -0.999891996383667
      ],
      "type": "VEC3"
    },
    {
      "bufferView": 1,
      "byteOffset": 92352,
      "componentType": 5126,
      "count": 755,
      "max": [
        0.9392150044441223,
        0.8832340240478516
      ],
      "min": [
        0.01216800045222044,
        0.045882001519203186
      ],
      "type": "VEC2"
    },
    {
      "bufferView": 0,
      "byteOffset": 104880,
      "componentType": 5125,
      "count": 1221,
      "type": "SCALAR"
    }
  ],
  "asset": {
    "extras": {
      "author": "Ivan Norman (https://sketchfab.com/vanidza)",
      "license": "CC-BY-NC-4.0 (http://creativecommons.org/licenses/by-nc/4.0/)",
      "source": "https://sketchfab.com/3d-models/low-poly-tesla-cybertruck-5d5d84862b1046b7983433938cd9fbe6",
      "title": "Low-poly tesla cybertruck"
    },
    "generator": "Sketchfab-12.66.0",
    "version": "2.0"
  },
  "bufferViews": [
    {
      "buffer": 0,
      "byteLength": 109764,
      "name": "floatBufferViews",
      "target": 34963
    },
    {
      "buffer": 0,
      "byteLength": 98392,
      "byteOffset": 109764,
      "byteStride": 8,
      "name": "floatBufferViews",
      "target": 34962
    },
    {
      "buffer": 0,
      "byteLength": 295176,
      "byteOffset": 208156,
      "byteStride": 12,
      "name": "floatBufferViews",
      "target": 34962
    }
  ],
  "buffers": [
    {
      "byteLength": 503332,
      "uri": "scene.bin"
    }
  ],
  "materials": [
    {
      "doubleSided": true,
      "name": "Black",
      "pbrMetallicRoughness": {
        "baseColorFactor": [
          0.0,
          0.0,
          0.0,
          1.0
        ],
        "metallicFactor": 0.0
      }
    },
    {
      "doubleSided": true,
      "name": "Black_glass",
      "pbrMetallicRoughness": {
        "baseColorFactor": [
          0.0,
          0.0,
          0.0,
          1.0
        ],
        "metallicFactor": 0.0,
        "roughnessFactor": 0.2
      }
    },
    {
      "doubleSided": true,
      "name": "Glass",
      "pbrMetallicRoughness": {
        "baseColorFactor": [
          0.0,
          0.0,
          0.0,
          1.0
        ],
        "metallicFactor": 0.0,
        "roughnessFactor": 0.15
      }
    },
    {
      "doubleSided": true,
      "name": "Gray",
      "pbrMetallicRoughness": {
        "baseColorFactor": [
          0.0116122452,
          0.0116122452,
          0.0116122452,
          1.0
        ],
        "metallicFactor": 0.0
      }
    },
    {
      "doubleSided": true,
      "emissiveFactor": [
        1.0,
        0.0751220198,
        0.008782884
      ],
      "name": "Light_orange",
      "pbrMetallicRoughness": {
        "baseColorFactor": [
          0.8069522577,
          0.1296324337,
          0.004391442,
          1.0
        ],
        "metallicFactor": 0.0
      }
    },
    {
      "doubleSided": true,
      "emissiveFactor": [
        1.0,
        1.0,
        1.0
      ],
      "name": "Light_white",
      "pbrMetallicRoughness": {
        "metallicFactor": 0.0
      }
    },
    {
      "doubleSided": true,
      "emissiveFactor": [
        1.0,
        0.0372628026,
        0.008782884
      ],
      "name": "Orange",
      "pbrMetallicRoughness": {
        "baseColorFactor": [
          0.3052835848,
          0.0624110433,
          0.0060163742,
          1.0
        ],
        "metallicFactor": 0.0
      }
    },
    {
      "doubleSided": true,
      "name": "SB_black",
      "pbrMetallicRoughness": {
        "baseColorFactor": [
          0.07935521338095003,
          0.08699012458933748,
          0.09503719215562158,
          1.0
        ],
        "metallicFactor": 0.0,
        "roughnessFactor": 0.5
      }
    },
    {
      "doubleSided": true,
      "name": "SB_gray",
      "pbrMetallicRoughness": {
        "baseColorFactor": [
          0.1026328792709757,
          0.11094155894955315,
          0.11962991858669911,
          1.0
        ],
        "metallicFactor": 0.0,
        "roughnessFactor": 0.5
      }
    },
    {
      "doubleSided": true,
      "name": "Silver",
      "pbrMetallicRoughness": {
        "baseColorFactor": [
          0.1119324278,
          0.1247718176,
          0.138431615,
          1.0
        ],
        "metallicFactor": 0.0,
        "roughnessFactor": 0.8
      }
    }
  ],
  "meshes": [
    {
      "name": "Object_0",
      "primitives": [
        {
          "attributes": {
            "NORMAL": 1,
            "POSITION": 0,
            "TEXCOORD_0": 2
          },
          "indices": 3,
          "material": 1,
          "mode": 4
        }
      ]
    },
    {
      "name": "Object_1",
      "primitives": [
        {
          "attributes": {
            "NORMAL": 5,
            "POSITION": 4,
            "TEXCOORD_0": 6
          },
          "indices": 7,
          "material": 6,
          "mode": 4
        }
      ]
    },
    {
      "name": "Object_2",
      "primitives": [
        {
          "attributes": {
            "NORMAL": 9,
            "POSITION": 8,
            "TEXCOORD_0": 10
          },
          "indices": 11,
          "material": 7,
          "mode": 4
        }
      ]
    },
    {
      "name": "Object_3",
      "primitives": [
        {
          "attributes": {
            "NORMAL": 13,
            "POSITION": 12,
            "TEXCOORD_0": 14
          },
          "indices": 15,
          "material": 8,
          "mode": 4
        }
      ]
    },
    {
      "name": "Object_4",
      "primitives": [
        {
          "attributes": {
            "NORMAL": 17,
            "POSITION": 16,
            "TEXCOORD_0": 18
          },
          "indices": 19,
          "material": 0,
          "mode": 4
        }
      ]
    },
    {
      "name": "Object_5",
      "primitives": [
        {
          "attributes": {
            "NORMAL": 21,
            "POSITION": 20,
            "TEXCOORD_0": 22
          },
          "indices": 23,
          "material": 2,
          "mode": 4
        }
      ]
    },
    {
      "name": "Object_6",
      "primitives": [
        {
          "attributes": {
            "NORMAL": 25,
            "POSITION": 24,
            "TEXCOORD_0": 26
          },
          "indices": 27,
          "material": 3,
          "mode": 4
        }
      ]
    },
    {
      "name": "Object_7",
      "primitives": [
        {
          "attributes": {
            "NORMAL": 29,
            "POSITION": 28,
            "TEXCOORD_0": 30
          },
          "indices": 31,
          "material": 4,
          "mode": 4
        }
      ]
    },
    {
      "name": "Object_8",
      "primitives": [
        {
          "attributes": {
            "NORMAL": 33,
            "POSITION": 32,
            "TEXCOORD_0": 34
          },
          "indices": 35,
          "material": 5,
          "mode": 4
        }
      ]
    },
    {
      "name": "Object_9",
      "primitives": [
        {
          "attributes": {
            "NORMAL": 37,
            "POSITION": 36,
            "TEXCOORD_0": 38
          },
          "indices": 39,
          "material": 9,
          "mode": 4
        }
      ]
    }
  ],
  "nodes": [
    {
      "children": [
        1
      ],
      "matrix": [
        1.0,
        0.0,
        0.0,
        0.0,
        0.0,
        2.220446049250313e-16,
        -1.0,
        0.0,
        0.0,
        1.0,
        2.220446049250313e-16,
        0.0,
        0.0,
        0.0,
        0.0,
        1.0
      ],
      "name": "Sketchfab_model"
    },
    {
      "children": [
        2,
        3,
        4,
        5,
        6,
        7,
        8,
        9,
        10,
        11
      ],
      "name": "Cybertruck.obj.cleaner.materialmerger.gles"
    },
    {
      "mesh": 0,
      "name": "Object_2"
    },
    {
      "mesh": 1,
      "name": "Object_3"
    },
    {
      "mesh": 2,
      "name": "Object_4"
    },
    {
      "mesh": 3,
      "name": "Object_5"
    },
    {
      "mesh": 4,
      "name": "Object_6"
    },
    {
      "mesh": 5,
      "name": "Object_7"
    },
    {
      "mesh": 6,
      "name": "Object_8"
    },
    {
      "mesh": 7,
      "name": "Object_9"
    },
    {
      "mesh": 8,
      "name": "Object_10"
    },
    {
      "mesh": 9,
      "name": "Object_11"
    }
  ],
  "scene": 0,
  "scenes": [
    {
      "name": "Sketchfab_Scene",
      "nodes": [
        0
      ]
    }
  ]
}
